<?xml version="1.0" encoding="UTF-8"?>
<svg width="40px" height="40px" viewBox="0 0 40 40" version="1.1" xmlns="http://www.w3.org/2000/svg" xmlns:xlink="http://www.w3.org/1999/xlink">
    <title>编组 5@2x</title>
    <g id="卡片" stroke="none" stroke-width="1" fill="none" fill-rule="evenodd">
        <g id="iPhone-15-Pro-Max" transform="translate(-15, -1321)" fill="#FF9500" fill-rule="nonzero">
            <g id="编组-5" transform="translate(15, 1321)">
                <circle id="椭圆形" fill-opacity="0.2" cx="20" cy="20" r="20"></circle>
                <path d="M19.9629412,15 L20.007549,15 C20.1721569,15.005096 20.3360784,15.0464407 20.479902,15.1258609 C20.5647059,15.1709555 20.6398039,15.2310495 20.7105882,15.2947011 C23.1316667,17.4343365 25.552549,19.5741643 27.9736275,21.7137036 C27.9740196,21.2898725 27.9738235,20.8660414 27.9737255,20.4422104 C27.9714706,20.350579 27.9833333,20.2575054 28.0204902,20.1727007 C28.1071569,19.9622274 28.3264706,19.8127135 28.5583333,19.8082906 C28.8361765,19.8064637 29.1142157,19.8078098 29.3921569,19.8077137 C29.5586275,19.8064637 29.7240196,19.8758843 29.8369608,19.9959762 C29.9389216,20.1017417 29.9970588,20.2454866 30,20.3907699 L30,24.4162037 C29.9970588,24.574948 29.9273529,24.7313848 29.8084314,24.8393617 C29.6926471,24.9472425 29.5320588,25.0043558 29.3728431,24.9997406 C28.0162745,24.999356 26.6598039,25.0002214 25.3032353,24.9992599 C25.067549,24.9995483 24.8417647,24.8498421 24.7531373,24.6359074 C24.7171569,24.5537949 24.7040196,24.4637981 24.7057843,24.3749551 C24.7059804,24.1857311 24.7057843,23.9966032 24.7058824,23.8073792 C24.7084314,23.7045944 24.6985294,23.6008481 24.7160784,23.4989286 C24.7528431,23.2892245 24.914902,23.1071156 25.1215686,23.0425025 C25.2146078,23.0103883 25.3144118,23.0114459 25.4118627,23.0125036 C25.747451,23.0125036 26.0830392,23.0126959 26.4187255,23.0124074 C24.2758824,21.1184363 22.1327451,19.2248498 19.9897059,17.3311671 C17.1911765,19.8282899 14.3911765,22.3237781 11.5922549,24.8205162 C11.5387255,24.8695529 11.4798039,24.9139744 11.4126471,24.9437811 C11.2461765,25.0209899 11.0438235,25.0171439 10.8802941,24.9339737 C10.8134314,24.9007057 10.7540196,24.8541689 10.7034314,24.79994 C10.5657843,24.6530222 10.4284314,24.5058159 10.2907843,24.3587057 C10.2239216,24.2836122 10.147549,24.2156339 10.0922549,24.13131 C10.0367647,24.0459284 10.0071569,23.9462204 10,23.845647 L10,23.7926682 C10.0079412,23.6332507 10.0828431,23.4789293 10.2052941,23.3735484 C13.2227451,20.6823941 16.2404902,17.9917206 19.2578431,15.3005662 C19.3090196,15.2541256 19.3610784,15.2082618 19.4194118,15.1705709 C19.5788235,15.0636516 19.7702941,15.0062498 19.9629412,15 Z" id="路径"></path>
            </g>
        </g>
    </g>
</svg>