<?xml version="1.0" encoding="utf-8"?>
<svg width="46px" height="46px" viewBox="0 0 46 46" version="1.1" xmlns:xlink="http://www.w3.org/1999/xlink" xmlns="http://www.w3.org/2000/svg">
  <g id="编组-3">
    <path d="M23 46C35.7025 46 46 35.7025 46 23C46 10.2975 35.7025 0 23 0C10.2975 0 0 10.2975 0 23C0 35.7025 10.2975 46 23 46Z" id="椭圆形" fill="#FFBD00" fill-opacity="0.2" fill-rule="evenodd" stroke="none" />
    <path d="M22.9653 16L23.0115 16C23.2138 16.0072 23.4149 16.0669 23.5839 16.1784C23.6633 16.2295 23.7331 16.2934 23.8031 16.3564C26.8081 19.042 29.8128 21.7279 32.818 24.4135C32.8183 23.7728 32.8176 23.132 32.8183 22.4913C32.8178 22.3303 32.8874 22.1708 33.0065 22.0612C33.1151 21.9593 33.2636 21.9015 33.413 21.9018C33.7437 21.9014 34.0743 21.9013 34.405 21.9018C34.5725 21.9012 34.7384 21.9748 34.8491 22.0995C34.9425 22.2023 34.9952 22.3387 35 22.4767L35 27.4236C34.9955 27.5922 34.9159 27.7574 34.7839 27.8643C34.6825 27.9485 34.5521 27.9957 34.4203 28L29.4306 28C29.2823 27.9955 29.1364 27.9354 29.0306 27.8319C28.9436 27.7478 28.8834 27.6368 28.8617 27.5181C28.849 27.4532 28.8511 27.3867 28.8511 27.321C28.8513 27.0229 28.8507 26.7249 28.8513 26.4267C28.8509 26.2763 28.9108 26.1268 29.0163 26.0185C29.0993 25.9323 29.2091 25.8717 29.3271 25.8484C29.3989 25.8331 29.4728 25.8362 29.5458 25.8361C30.0816 25.836 30.6174 25.8361 31.1533 25.836C28.4311 23.4035 25.7096 20.9706 22.987 18.5388C19.5511 21.6379 16.1147 24.7366 12.6786 27.8354C12.575 27.9332 12.4366 27.9918 12.2939 28L12.237 28C12.0821 27.9911 11.9313 27.9231 11.8265 27.8091C11.6239 27.5908 11.4222 27.3718 11.2199 27.1532C11.1602 27.0897 11.0986 27.0252 11.0609 26.9457C11.0249 26.8742 11.0062 26.7952 11 26.7158L11 26.659C11.0075 26.5501 11.042 26.4425 11.1055 26.353C11.1475 26.2911 11.2047 26.2423 11.2599 26.1927C14.9271 22.8855 18.5943 19.5783 22.2615 16.2711C22.4536 16.1009 22.7082 16.0054 22.9653 16Z" id="路径" fill="#FFBD00" stroke="none" />
  </g>
</svg>